<?xml version="1.0" standalone="no"?>
<!DOCTYPE svg PUBLIC "-//W3C//DTD SVG 20010904//EN"
 "http://www.w3.org/TR/2001/REC-SVG-20010904/DTD/svg10.dtd">
<svg version="1.0" xmlns="http://www.w3.org/2000/svg"
 width="475.000000pt" height="276.000000pt" viewBox="0 0 475.000000 276.000000"
 preserveAspectRatio="xMidYMid meet">

<g transform="translate(0.000000,276.000000) scale(0.100000,-0.100000)"
fill="#000000" stroke="none">
<path d="M0 1380 l0 -1380 2375 0 2375 0 0 1380 0 1380 -2375 0 -2375 0 0
-1380z m770 1320 c0 -5 -4 -10 -10 -10 -5 0 -10 5 -10 10 0 6 5 10 10 10 6 0
10 -4 10 -10z m-270 -64 c0 -38 3 -45 23 -49 16 -3 13 -5 -10 -6 l-33 -1 0 50
c0 28 5 50 10 50 6 0 10 -20 10 -44z m270 -6 c0 -27 -4 -50 -10 -50 -5 0 -10
23 -10 50 0 28 5 50 10 50 6 0 10 -22 10 -50z m70 -1 c0 -49 -1 -50 -27 -47
-22 2 -29 9 -31 31 -3 22 1 30 17 34 12 3 21 12 21 19 0 8 5 14 10 14 6 0 10
-23 10 -51z m60 6 c0 -41 2 -45 24 -45 19 0 25 6 28 28 2 21 8 27 28 27 21 0
25 -5 25 -30 0 -30 0 -30 -62 -33 l-63 -2 0 50 c0 27 5 50 10 50 6 0 10 -20
10 -45z m562 5 c-5 -38 -22 -39 -23 -2 l-1 27 -7 -25 c-6 -22 -13 -25 -59 -27
-51 -3 -52 -2 -52 26 l0 29 73 1 73 1 -4 -30z m-389 -11 c-3 -11 -15 -24 -26
-28 -19 -7 -19 -8 6 -13 16 -3 28 -1 29 6 0 6 2 16 3 21 2 6 3 15 4 21 0 7 13
14 27 17 18 3 24 1 20 -9 -6 -17 6 -18 21 -3 15 15 43 4 43 -16 0 -8 -9 -15
-21 -15 -11 0 -18 -4 -14 -10 3 -5 12 -7 20 -3 8 3 15 0 15 -6 0 -20 -38 -12
-54 11 -9 12 -16 17 -16 11 0 -6 -8 -14 -17 -16 -13 -3 -12 -5 5 -6 17 -1 22
-6 20 -18 -3 -14 -15 -18 -58 -20 -30 -1 -57 2 -60 8 -3 5 -4 25 -2 45 3 25
11 38 26 44 28 10 35 5 29 -21z m-473 -14 c0 -31 -3 -35 -25 -35 -30 0 -35 29
-5 37 11 3 17 9 15 14 -3 4 -12 6 -20 2 -8 -3 -15 0 -15 6 0 6 11 11 25 11 22
0 25 -4 25 -35z m110 23 c0 -6 -8 -7 -17 -4 -17 6 -17 5 0 -8 23 -18 22 -46
-2 -46 -11 0 -23 5 -27 12 -5 8 -2 9 9 5 23 -9 21 -1 -4 24 -23 23 -35 17 -42
-21 -3 -19 -5 -16 -6 12 l-1 36 45 0 c25 0 45 -4 45 -10z m532 0 c-7 -7 -12
-22 -12 -35 0 -13 -4 -23 -10 -23 -5 0 -10 16 -10 35 0 29 4 35 22 35 17 0 19
-3 10 -12z m371 5 c-7 -2 -14 -19 -14 -36 l-2 -32 -4 30 c-3 16 -10 33 -16 37
-7 4 2 7 18 7 17 0 24 -3 18 -6z m97 -28 c0 -30 -3 -35 -22 -34 -17 1 -19 2
-5 6 9 2 17 11 17 19 0 8 -8 15 -17 15 -17 1 -17 2 0 6 9 2 17 9 17 14 0 5 2
9 5 9 3 0 5 -16 5 -35z m250 25 c0 -5 -5 -10 -11 -10 -5 0 -7 5 -4 10 3 6 8
10 11 10 2 0 4 -4 4 -10z m54 2 c2 -4 -4 -8 -14 -8 -10 0 -16 4 -14 8 3 4 9 8
14 8 5 0 11 -4 14 -8z m65 -29 c-1 -37 -1 -37 -8 -8 -7 28 -5 45 5 45 2 0 3
-17 3 -37z m139 19 c2 -7 -5 -16 -16 -19 -12 -3 -23 -12 -25 -22 -3 -9 -5 1
-6 22 -1 34 2 38 21 35 12 -2 23 -9 26 -16z m31 11 c0 -5 -4 -17 -9 -28 -8
-18 -9 -17 -9 8 -1 15 4 27 9 27 6 0 10 -3 9 -7z m37 -20 c-10 -10 -19 5 -10
18 6 11 8 11 12 0 2 -7 1 -15 -2 -18z m-639 1 c-3 -3 -12 -4 -19 -1 -8 3 -5 6
6 6 11 1 17 -2 13 -5z m111 -22 c2 -14 -2 -22 -12 -22 -22 0 -30 19 -11 26 14
6 14 9 3 16 -10 8 -10 9 2 5 8 -2 16 -13 18 -25z m110 0 c2 -16 -2 -22 -15
-22 -14 0 -15 2 -5 9 8 4 14 12 14 16 0 4 -6 12 -14 17 -10 8 -10 9 2 5 8 -2
16 -13 18 -25z m39 22 c-3 -3 -12 -4 -19 -1 -8 3 -5 6 6 6 11 1 17 -2 13 -5z
m190 -16 c-3 -8 -6 -5 -6 6 -1 11 2 17 5 13 3 -3 4 -12 1 -19z m40 0 c-3 -8
-6 -5 -6 6 -1 11 2 17 5 13 3 -3 4 -12 1 -19z m133 -9 c0 -6 -4 -7 -10 -4 -5
3 -10 11 -10 16 0 6 5 7 10 4 6 -3 10 -11 10 -16z m-482 -14 c-3 -3 -9 2 -12
12 -6 14 -5 15 5 6 7 -7 10 -15 7 -18z m-1539 1 c28 -1 36 -5 38 -21 1 -11 3
-29 5 -40 2 -14 -3 -21 -19 -23 -13 -2 -23 1 -23 7 0 6 8 8 18 4 14 -5 14 -3
-3 14 -20 20 -20 20 -23 -1 -6 -32 -22 -44 -22 -15 -1 23 -1 23 -15 -6 l-13
-30 -2 30 c-2 18 -4 23 -7 13 -5 -21 -19 -23 -29 -6 -5 7 -11 5 -21 -7 -7 -11
-13 -14 -13 -8 0 6 -11 8 -25 5 -22 -4 -25 -1 -25 26 0 17 -3 37 -6 46 -4 11
-1 16 10 16 12 0 16 -10 16 -35 0 -23 5 -35 14 -35 15 0 26 21 26 52 0 16 5
19 25 16 14 -3 28 -1 31 4 3 4 10 5 16 2 6 -4 27 -7 47 -8z m1761 0 c-7 -7
-13 -7 -20 0 -6 6 -3 10 10 10 13 0 16 -4 10 -10z m-363 -2 c-3 -3 -12 -4 -19
-1 -8 3 -5 6 6 6 11 1 17 -2 13 -5z m-1147 -1259 c0 -1049 -2 -1184 -15 -1179
-13 5 -15 146 -15 1179 0 929 3 1174 13 1178 6 3 13 6 15 6 1 1 2 -532 2
-1184z m370 1020 c0 -18 4 -22 20 -18 11 3 20 12 20 19 0 8 5 14 10 14 6 0 10
-20 10 -45 l0 -45 -40 2 -40 1 0 54 c0 34 4 52 10 48 6 -3 10 -17 10 -30z
m-240 -20 c0 -24 5 -35 15 -35 8 0 15 -4 15 -10 0 -5 -11 -10 -25 -10 -23 0
-25 4 -25 45 0 25 5 45 10 45 6 0 10 -16 10 -35z m350 0 c0 -28 4 -35 19 -35
11 0 21 9 24 21 5 17 11 21 33 16 16 -3 38 -1 51 4 19 7 23 5 23 -11 0 -10 -7
-23 -16 -28 -14 -8 -13 -10 5 -15 17 -4 21 -1 21 19 0 31 41 51 52 25 4 -9 7
-11 7 -4 1 7 19 11 47 11 34 0 43 -3 35 -11 -6 -6 -11 -19 -11 -29 0 -10 -4
-18 -10 -18 -5 0 -10 7 -10 15 0 8 -9 15 -21 15 -11 0 -17 -5 -14 -10 4 -6 11
-8 16 -5 5 4 9 1 9 -4 0 -16 -31 -13 -44 4 -8 10 -15 12 -26 5 -13 -8 -12 -10
3 -10 9 0 17 -6 17 -14 0 -11 -14 -15 -55 -15 -36 0 -55 5 -55 12 0 9 -18 11
-60 9 l-60 -3 0 46 c0 25 5 45 10 45 6 0 10 -16 10 -35z m365 -20 c0 -55 -7
-70 -19 -39 -8 21 -8 79 1 87 14 15 18 5 18 -48z m88 8 c3 -24 1 -43 -4 -43
-5 0 -9 21 -9 47 0 56 5 54 13 -4z m37 37 c0 -5 -4 -10 -10 -10 -5 0 -10 5
-10 10 0 6 5 10 10 10 6 0 10 -4 10 -10z m80 -10 c0 -11 5 -17 13 -15 8 3 13
-6 14 -25 1 -16 -2 -30 -7 -30 -6 0 -10 6 -10 13 0 8 -3 8 -8 2 -10 -16 -64
-17 -74 -3 -6 10 -8 10 -8 1 0 -7 -4 -13 -10 -13 -5 0 -10 14 -10 30 0 17 5
30 10 30 6 0 10 -6 10 -12 0 -9 3 -9 9 1 5 8 18 12 30 8 16 -4 21 -1 21 14 0
10 5 19 10 19 6 0 10 -9 10 -20z m241 -4 c12 -27 1 -77 -19 -84 -9 -3 -9 4 0
28 8 23 7 38 -1 56 -7 15 -7 24 -1 24 6 0 15 -11 21 -24z m-1073 -38 c3 -24 0
-28 -22 -28 -22 0 -26 4 -26 31 0 26 3 30 23 27 16 -2 23 -11 25 -30z m34 20
c-5 -7 -12 -22 -15 -33 -3 -13 -5 -9 -6 13 -1 23 3 32 15 32 12 0 14 -3 6 -12z
m60 -13 c6 -28 1 -35 -22 -35 -12 0 -17 9 -18 30 -1 39 33 43 40 5z m593 14
c4 -6 0 -9 -11 -7 -12 2 -19 -3 -19 -12 0 -9 7 -14 19 -12 11 2 15 -1 11 -7
-9 -16 -35 -13 -41 4 -13 33 24 63 41 34z m293 -1 c9 -9 12 -9 12 1 0 16 42
10 48 -6 2 -8 -5 -13 -18 -13 -12 0 -18 -4 -15 -10 4 -6 11 -8 16 -5 5 4 9 1
9 -4 0 -15 -40 -14 -41 2 0 10 -2 10 -6 0 -9 -23 -23 -14 -24 15 l-2 27 -4
-27 c-6 -36 -23 -36 -23 -1 0 29 -15 22 -23 -12 -3 -13 -5 -9 -6 13 -1 30 1
32 32 32 18 0 38 -5 45 -12z m2462 -150 c0 -17 28 -7 33 13 5 18 10 20 39 14
18 -4 43 -16 54 -27 19 -17 22 -17 27 -4 9 22 60 20 80 -1 13 -16 14 -21 1
-37 -12 -17 -12 -22 6 -39 35 -32 11 -74 -52 -88 -21 -5 -27 -2 -32 15 -6 25
14 40 28 20 7 -9 16 -11 25 -5 19 12 7 39 -20 43 -15 2 -26 14 -34 38 l-12 34
-6 -33 c-4 -18 -7 -50 -7 -71 0 -53 -28 -63 -32 -12 -3 40 -21 47 -26 10 -12
-105 -24 -111 -32 -15 -6 71 -23 83 -28 20 -4 -51 -27 -59 -37 -13 -9 39 -26
38 -45 -2 -26 -56 -39 -45 -24 19 8 32 14 76 14 99 0 22 3 43 6 46 7 8 74 -13
74 -24z m-172 13 c8 -5 13 -22 11 -42 -4 -68 -1 -79 26 -79 17 0 25 -5 25 -17
0 -26 -16 -47 -29 -38 -7 4 -18 1 -26 -5 -11 -10 -15 -10 -15 -1 0 7 -4 9 -10
6 -6 -4 -10 6 -10 22 0 15 -3 58 -7 96 -6 69 1 80 35 58z m-3288 -55 c6 -8 10
-25 8 -38 -2 -18 -9 -23 -33 -23 -23 0 -30 4 -30 20 0 27 41 34 48 8 4 -15 5
-14 6 3 1 20 -16 34 -40 34 -5 0 -14 -11 -20 -24 -17 -36 5 -70 38 -61 16 4
22 2 18 -5 -8 -14 -48 -13 -63 2 -7 7 -12 24 -12 39 0 49 52 78 80 45z m42
-31 c2 -27 -1 -44 -7 -42 -13 5 -19 87 -7 87 6 0 12 -20 14 -45z m108 34 c0
-6 -7 -17 -15 -25 -8 -9 -15 -24 -15 -35 0 -21 -15 -26 -26 -8 -4 8 -9 7 -15
-2 -10 -17 -16 -11 -25 26 -7 27 -6 29 9 16 11 -9 17 -10 17 -2 0 18 20 12 21
-6 1 -17 2 -17 6 0 2 9 9 17 14 17 5 0 9 7 9 15 0 8 5 15 10 15 6 0 10 -5 10
-11z m300 -35 c0 -41 -2 -45 -22 -42 -31 4 -38 47 -9 55 12 3 21 12 21 19 0 8
2 14 5 14 3 0 5 -21 5 -46z m52 -6 c2 -21 0 -38 -4 -38 -4 0 -8 21 -7 48 1 52
6 48 11 -10z m288 7 c0 -39 -3 -45 -20 -45 -11 0 -23 7 -26 15 -7 17 -44 21
-44 4 0 -6 7 -9 15 -5 8 3 15 1 15 -5 0 -6 -10 -9 -22 -7 -17 2 -23 10 -23 28
0 18 6 26 23 28 12 2 22 -1 22 -6 0 -6 10 -5 25 1 14 7 25 18 25 25 0 6 2 12
5 12 3 0 5 -20 5 -45z m30 21 c0 -14 -4 -28 -10 -31 -6 -4 -10 7 -10 24 0 17
5 31 10 31 6 0 10 -11 10 -24z m-489 7 c4 -46 2 -72 -6 -70 -12 4 -23 47 -17
65 5 13 22 17 23 5z m-91 -28 c0 -9 -7 -18 -17 -22 -14 -5 -12 -8 7 -15 17 -6
20 -12 13 -19 -16 -16 -48 -6 -47 14 1 9 2 26 3 37 1 24 41 28 41 5z m55 -15
c0 -16 -6 -26 -18 -28 -19 -4 -32 20 -23 44 9 25 41 13 41 -16z m92 -17 c-3
-10 -5 -2 -5 17 0 19 2 27 5 18 2 -10 2 -26 0 -35z m173 35 c0 -9 3 -9 12 0
17 17 48 15 48 -3 0 -7 -8 -19 -17 -24 -17 -10 -17 -10 0 -11 9 0 17 -7 17
-15 0 -10 -10 -15 -26 -15 -23 0 -26 3 -21 27 4 24 4 26 -8 10 -24 -34 -66
-11 -51 28 6 18 46 20 46 3z m113 -7 c-3 -11 -12 -22 -22 -24 -11 -3 -9 -5 7
-6 31 -1 29 -31 -3 -31 -22 0 -25 4 -25 33 0 38 6 47 31 47 12 0 16 -6 12 -19z
m-753 -161 c0 -5 -2 -10 -4 -10 -3 0 -8 5 -11 10 -3 6 -1 10 4 10 6 0 11 -4
11 -10z m70 -36 c0 -44 -1 -45 -27 -42 -36 4 -46 46 -14 55 12 3 21 12 21 19
0 8 5 14 10 14 6 0 10 -21 10 -46z m52 1 c2 -31 -1 -45 -9 -45 -9 0 -13 16
-13 45 0 25 4 45 9 45 5 0 11 -20 13 -45z m325 25 c3 -11 9 -20 14 -20 5 0 9
9 9 20 0 11 6 20 14 20 13 0 13 -6 -1 -45 -8 -25 -20 -44 -26 -42 -14 4 -38
87 -25 87 5 0 12 -9 15 -20z m83 -25 c0 -54 -16 -60 -23 -7 -5 40 -1 52 14 52
5 0 9 -20 9 -45z m580 35 c0 -5 -4 -10 -10 -10 -5 0 -10 -16 -10 -35 0 -19 -4
-35 -10 -35 -5 0 -10 16 -10 35 0 19 -4 35 -10 35 -5 0 -10 5 -10 10 0 6 14
10 30 10 17 0 30 -4 30 -10z m55 -35 c0 -33 -4 -41 -22 -43 -25 -4 -38 26 -29
64 5 19 12 25 29 22 18 -3 22 -9 22 -43z m35 25 c0 -11 5 -17 13 -15 8 4 12
-5 13 -25 1 -28 -15 -45 -17 -17 0 10 -2 10 -6 0 -11 -28 -23 -11 -23 32 0 25
5 45 10 45 6 0 10 -9 10 -20z m91 -12 c1 -18 3 -25 6 -15 3 10 14 17 29 17 20
0 24 -5 24 -30 0 -38 -19 -40 -21 -2 l-2 27 -4 -27 c-4 -28 -22 -39 -24 -15 0
10 -2 10 -6 0 -7 -19 -53 -16 -53 3 0 13 3 14 14 5 9 -8 16 -8 20 -2 4 5 2 12
-3 16 -6 3 -7 13 -4 22 5 12 2 15 -10 10 -9 -3 -17 -3 -17 2 0 13 12 21 32 21
13 0 18 -8 19 -32z m849 -13 c0 -25 -4 -45 -10 -45 -5 0 -10 20 -10 45 0 25 5
45 10 45 6 0 10 -20 10 -45z m68 13 c3 -23 -1 -28 -17 -28 -12 0 -21 -7 -21
-15 0 -8 -4 -15 -10 -15 -5 0 -10 21 -10 46 0 44 1 45 28 42 21 -2 28 -9 30
-30z m-1982 -34 c-15 -10 -15 -12 4 -17 17 -4 20 0 20 23 0 22 5 29 26 33 19
3 24 1 20 -10 -3 -8 -6 -18 -6 -23 0 -5 -8 -11 -17 -13 -13 -3 -12 -5 5 -6 47
-2 16 -26 -36 -28 l-52 -3 0 35 c0 28 5 38 23 44 27 11 38 -16 13 -35z m-229
-11 c-3 -10 -5 -2 -5 17 0 19 2 27 5 18 2 -10 2 -26 0 -35z m183 17 c0 -23 -4
-30 -20 -30 -23 0 -35 22 -26 45 3 8 15 15 26 15 16 0 20 -7 20 -30z m171 18
c0 -10 2 -10 6 0 2 6 14 12 26 11 12 0 16 -3 10 -6 -7 -2 -13 -16 -13 -29 0
-13 -4 -24 -10 -24 -5 0 -10 7 -10 15 0 8 -9 15 -21 15 -11 0 -17 -5 -14 -10
4 -6 11 -8 16 -5 5 4 9 1 9 -4 0 -17 -40 -13 -46 4 -4 8 -4 22 0 30 7 18 46
20 47 3z m36 -180 c-2 -13 -4 -3 -4 22 0 25 2 35 4 23 2 -13 2 -33 0 -45z
m290 0 c-2 -13 -4 -3 -4 22 0 25 2 35 4 23 2 -13 2 -33 0 -45z m227 46 c3 -8
2 -12 -4 -9 -6 3 -10 10 -10 16 0 14 7 11 14 -7z m206 2 c26 -32 -7 -87 -44
-73 -16 6 -23 66 -9 80 11 12 40 8 53 -7z m94 -3 c6 -14 8 -14 21 3 18 24 19
10 0 -41 -8 -22 -14 -32 -15 -23 0 28 -22 68 -37 68 -9 0 -13 -13 -13 -40 0
-22 -4 -40 -10 -40 -5 0 -10 18 -10 39 0 22 -5 42 -12 44 -7 3 6 6 28 6 30 1
44 -4 48 -16z m88 -18 c2 -19 0 -41 -4 -48 -6 -9 -8 -9 -8 1 0 6 -9 12 -20 12
-24 0 -24 3 -5 40 20 40 32 38 37 -5z m49 3 l14 -33 6 35 c6 33 6 32 8 -12 1
-56 -11 -62 -30 -15 l-14 32 -6 -35 c-6 -33 -6 -32 -8 13 -1 55 11 61 30 15z
m100 11 c16 -31 -3 -69 -36 -69 -23 0 -25 4 -25 45 0 41 2 45 25 45 15 0 29
-8 36 -21z m26 -46 c-2 -16 -4 -5 -4 22 0 28 2 40 4 28 2 -13 2 -35 0 -50z
m98 40 l7 -28 10 28 c14 40 25 33 30 -18 2 -25 0 -45 -4 -45 -5 0 -8 12 -8 28
l-1 27 -14 -25 -14 -25 -9 24 -9 25 -7 -27 c-5 -22 -12 -27 -37 -27 -31 0 -31
0 -15 24 14 23 14 25 -2 29 -12 3 -11 5 6 6 25 1 26 -2 12 -30 -8 -15 -7 -19
3 -19 9 0 17 15 21 40 7 46 21 52 31 13z m123 20 c-10 -2 -18 -11 -18 -19 0
-8 8 -15 18 -15 16 -1 16 -2 0 -6 -10 -2 -18 -11 -18 -18 0 -7 8 -16 18 -18
10 -3 6 -5 -10 -6 -27 -1 -28 1 -28 44 0 43 1 45 28 44 16 -1 20 -3 10 -6z
m72 -17 c0 -14 5 -28 10 -31 6 -4 10 7 10 24 0 38 15 40 28 4 l10 -28 7 28 c7
28 25 38 25 13 0 -7 3 -28 6 -45 4 -20 3 -31 -5 -31 -6 0 -11 12 -12 28 0 26
-1 26 -9 5 -5 -13 -12 -23 -15 -23 -3 0 -10 10 -15 23 -8 21 -9 21 -9 -5 -1
-27 -21 -41 -21 -15 0 9 -3 9 -9 -1 -11 -17 -43 -12 -49 8 -4 12 -2 13 9 3 7
-7 17 -13 21 -13 13 0 9 30 -4 31 -10 0 -10 2 0 6 6 2 12 11 12 20 0 10 -6 12
-21 8 -15 -5 -19 -4 -15 4 4 6 16 11 27 11 14 0 19 -7 19 -24z m167 8 c5 -15
7 -15 15 0 11 20 42 21 58 1 16 -20 4 -85 -15 -85 -8 0 -24 9 -34 19 -16 16
-20 17 -25 5 -3 -8 -17 -14 -31 -14 -23 0 -25 4 -25 45 0 41 2 45 25 45 14 0
28 -7 32 -16z m-1863 -38 c1 -19 -2 -32 -5 -28 -12 12 -15 81 -3 69 3 -3 7
-22 8 -41z m-40 16 c2 -4 -4 -8 -14 -8 -10 0 -16 4 -14 8 3 4 9 8 14 8 5 0 11
-4 14 -8z m83 2 c-3 -3 -12 -4 -19 -1 -8 3 -5 6 6 6 11 1 17 -2 13 -5z m58 -4
c3 -6 -1 -7 -9 -4 -18 7 -21 14 -7 14 6 0 13 -4 16 -10z m345 6 c0 -2 -7 -7
-16 -10 -8 -3 -12 -2 -9 4 6 10 25 14 25 6z m65 -6 c3 -6 -1 -7 -9 -4 -18 7
-21 14 -7 14 6 0 13 -4 16 -10z m185 -4 c0 -8 -5 -18 -12 -22 -7 -5 -8 -3 -3
6 4 7 2 16 -6 21 -11 7 -10 9 4 9 9 0 17 -6 17 -14z m880 -26 c0 -22 -3 -40
-8 -40 -4 0 -6 18 -4 40 2 22 6 40 8 40 2 0 4 -18 4 -40z m-1175 -10 c-3 -5
-12 -10 -18 -10 -7 0 -6 4 3 10 19 12 23 12 15 0z m40 -8 c-3 -3 -11 0 -18 7
-9 10 -8 11 6 5 10 -3 15 -9 12 -12z m70 8 c-3 -5 -12 -10 -18 -10 -7 0 -6 4
3 10 19 12 23 12 15 0z m232 -6 c-3 -3 -12 -4 -19 -1 -8 3 -5 6 6 6 11 1 17
-2 13 -5z m-50 -20 c-3 -3 -12 -4 -19 -1 -8 3 -5 6 6 6 11 1 17 -2 13 -5z m50
0 c-3 -3 -12 -4 -19 -1 -8 3 -5 6 6 6 11 1 17 -2 13 -5z m-680 -86 c-2 -13 -4
-5 -4 17 -1 22 1 32 4 23 2 -10 2 -28 0 -40z m120 0 c-2 -13 -4 -5 -4 17 -1
22 1 32 4 23 2 -10 2 -28 0 -40z m58 42 c3 -6 -1 -7 -9 -4 -18 7 -21 14 -7 14
6 0 13 -4 16 -10z m113 3 c-10 -2 -18 -13 -18 -24 0 -11 7 -19 18 -20 15 -1
15 -2 0 -6 -9 -2 -19 -12 -21 -21 -3 -9 -5 4 -6 31 -1 43 1 47 22 46 16 -1 18
-2 5 -6z m75 0 c-7 -2 -21 -2 -30 0 -10 3 -4 5 12 5 17 0 24 -2 18 -5z m60 0
c3 -5 -5 -8 -18 -8 -13 0 -21 3 -18 8 2 4 10 7 18 7 8 0 16 -3 18 -7z m526
-40 c-2 -35 -3 -40 -6 -18 -3 16 -9 33 -15 36 -12 7 -2 29 13 29 5 0 8 -21 8
-47z m71 33 c26 -32 -7 -87 -44 -73 -16 6 -23 66 -9 80 11 12 40 8 53 -7z
m105 -4 c5 -13 8 -12 20 4 18 24 19 10 0 -41 -8 -24 -14 -32 -15 -20 0 11 -7
31 -15 45 l-14 25 1 -31 c1 -41 -8 -54 -38 -54 -22 0 -24 4 -24 45 l0 45 40
-2 c24 -1 41 -7 45 -16z m155 -2 c0 -11 4 -20 9 -20 5 0 11 9 14 20 10 39 27
21 26 -27 -1 -43 -2 -45 -9 -18 -7 29 -8 29 -15 8 -9 -27 -22 -30 -28 -5 -3
14 -6 13 -15 -8 -11 -25 -11 -25 -11 7 -1 37 7 63 20 63 5 0 9 -9 9 -20z m148
7 c14 25 26 10 13 -15 -6 -12 -11 -30 -11 -41 0 -31 -17 -26 -22 7 -3 15 -8
36 -12 47 -7 19 -7 19 7 2 15 -18 16 -18 25 0z m-991 -39 c-3 -8 -6 -5 -6 6
-1 11 2 17 5 13 3 -3 4 -12 1 -19z m744 5 c1 -17 2 -17 6 0 5 20 19 22 26 5 4
-10 8 -9 16 2 12 17 14 6 5 -27 -7 -27 -24 -31 -24 -6 0 15 -2 14 -14 -3 -16
-21 -14 -22 -31 31 -2 8 0 15 5 15 6 0 11 -8 11 -17z m199 9 c0 -4 -6 -14 -12
-20 -10 -10 -10 -15 2 -22 12 -8 10 -10 -7 -10 -26 0 -29 10 -11 28 10 10 10
15 -2 22 -12 8 -10 10 8 10 12 0 22 -4 22 -8z m97 -4 c2 6 8 12 13 12 5 0 1
-18 -7 -40 -10 -24 -23 -40 -32 -40 -13 0 -13 2 -2 9 9 6 11 19 6 42 -5 27 -4
31 5 19 9 -11 13 -12 17 -2z m-1442 -38 c-3 -5 -14 -10 -23 -9 -14 0 -13 2 3
9 27 11 27 11 20 0z m-155 -445 c0 -25 -4 -45 -10 -45 -5 0 -10 20 -10 45 0
25 5 45 10 45 6 0 10 -20 10 -45z m65 0 c0 -36 -3 -40 -27 -43 -27 -3 -28 -2
-28 43 0 45 1 46 28 43 24 -3 27 -7 27 -43z m995 10 c0 -24 5 -35 15 -35 10 0
15 11 15 35 0 19 5 35 10 35 12 0 13 -60 1 -78 -4 -8 -19 -12 -32 -10 -20 2
-24 9 -27 46 -2 25 1 42 7 42 6 0 11 -16 11 -35z m1109 20 c-1 -5 -10 -9 -21
-7 -13 2 -18 -3 -18 -22 0 -28 15 -42 26 -25 3 6 0 16 -7 21 -10 7 -6 8 14 5
15 -2 27 0 27 4 0 13 34 11 48 -3 9 -9 12 -9 12 -1 0 7 16 12 38 12 61 1 72 4
72 18 0 7 4 13 9 13 5 0 11 -20 13 -45 3 -48 -11 -57 -23 -14 -5 16 -7 18 -8
7 -1 -10 -9 -18 -18 -19 -14 0 -12 -3 5 -10 13 -5 20 -13 17 -19 -9 -15 -55
-12 -55 4 0 9 -8 12 -25 8 -16 -3 -25 0 -25 9 0 10 -3 10 -12 1 -16 -16 -48
-15 -48 1 0 9 -2 9 -9 -1 -5 -8 -21 -12 -37 -10 -23 2 -30 8 -32 31 -5 43 4
59 33 55 14 -2 25 -7 24 -13z m349 -7 l11 -23 0 23 c1 35 31 28 31 -8 0 -16 5
-30 10 -30 6 0 10 7 10 15 0 8 9 15 20 15 16 0 20 -7 20 -30 0 -27 -3 -29 -35
-28 -28 1 -35 5 -35 22 -1 19 -2 19 -11 4 -5 -10 -14 -18 -19 -18 -5 0 -11 8
-13 18 -4 13 -5 11 -6 -5 -2 -43 -21 -23 -21 22 0 50 19 61 38 23z m-1362 -23
c-7 -20 4 -19 19 2 7 9 19 14 29 10 23 -9 20 -27 -5 -27 -11 0 -18 -4 -14 -10
3 -5 12 -7 20 -3 8 3 15 0 15 -6 0 -15 -33 -14 -48 1 -9 9 -12 9 -12 0 0 -7
-9 -12 -20 -12 -11 0 -20 5 -20 11 0 5 6 7 13 3 10 -6 10 -4 0 7 -20 20 -15
39 8 39 15 0 19 -5 15 -15z m164 -15 c0 -38 -19 -40 -21 -2 l-2 27 -4 -27 c-5
-35 -23 -37 -23 -3 0 14 -4 25 -10 25 -5 0 -10 -11 -10 -25 0 -14 -4 -25 -10
-25 -5 0 -10 14 -10 30 0 29 2 30 45 30 43 0 45 -1 45 -30z m58 -2 c3 -24 0
-28 -22 -28 -21 0 -25 4 -24 30 1 26 5 30 22 28 15 -2 22 -11 24 -30z m92 2
c0 -38 -19 -40 -21 -2 l-2 27 -4 -27 c-2 -16 -9 -28 -14 -28 -5 0 -10 12 -10
28 l-2 27 -4 -27 c-6 -37 -23 -36 -23 2 0 28 2 30 40 30 38 0 40 -2 40 -30z
m60 15 c0 -8 -7 -15 -15 -15 -8 0 -15 -4 -15 -10 0 -5 7 -7 15 -4 8 4 15 1 15
-5 0 -17 -40 -13 -46 4 -9 23 3 45 26 45 11 0 20 -7 20 -15z m918 -2 c2 -8 -5
-13 -18 -13 -12 0 -18 -4 -15 -10 4 -6 11 -8 16 -5 5 4 9 1 9 -4 0 -17 -37
-13 -44 4 -9 24 5 46 27 43 11 -2 22 -9 25 -15z m286 -6 c7 -30 -1 -37 -41
-35 -20 1 -39 -4 -41 -10 -8 -26 -22 -10 -22 27 l0 40 49 -1 c41 -1 50 -5 55
-21z m-2705 -124 c9 -17 10 -17 16 0 4 9 11 17 17 17 5 0 7 -4 3 -10 -3 -5 0
-18 6 -28 7 -11 9 -27 6 -36 -9 -22 -38 -20 -44 4 -5 19 -6 19 -25 -3 -15 -17
-18 -18 -14 -4 3 9 1 17 -3 17 -13 0 -21 27 -15 45 8 20 41 19 53 -2z m107 -8
c1 -11 2 -24 3 -30 1 -5 10 5 21 23 25 41 37 41 42 -3 4 -37 -9 -71 -19 -47
-6 15 -35 16 -50 1 -20 -20 -42 -3 -41 33 0 18 3 37 5 41 9 15 38 2 39 -18z
m124 0 c0 -14 -7 -28 -15 -31 -20 -8 -19 -21 3 -27 10 -3 6 -5 -10 -6 -33 -1
-35 9 -8 34 27 25 27 48 -1 40 -15 -5 -19 -4 -15 4 4 6 16 11 27 11 14 0 19
-7 19 -25z m57 -23 c3 -39 1 -43 -19 -40 -12 2 -23 9 -24 16 -1 7 0 8 3 2 7
-16 33 -12 33 5 0 8 -5 15 -11 15 -8 0 -9 4 0 13 13 17 4 28 -17 20 -10 -4
-13 -2 -8 6 17 27 41 6 43 -37z m63 23 c0 -14 -7 -28 -15 -31 -20 -8 -19 -21
3 -27 10 -3 6 -5 -10 -6 -33 -1 -35 9 -8 34 27 25 27 48 -1 40 -15 -5 -19 -4
-15 4 4 6 16 11 27 11 14 0 19 -7 19 -25z m156 -2 l7 -25 16 26 c8 14 19 26
22 26 10 0 16 -69 7 -83 -6 -9 -8 -9 -8 1 0 6 -11 12 -25 12 -14 0 -25 -5 -25
-11 0 -6 -10 -9 -22 -7 -18 2 -24 11 -29 43 l-5 40 -13 -45 c-8 -25 -16 -39
-18 -32 -3 7 0 26 6 42 9 27 8 30 -10 30 -16 0 -19 -8 -20 -42 -2 -35 -3 -37
-6 -13 -3 16 -9 33 -15 36 -25 16 7 29 68 28 60 -1 65 -3 70 -26z m104 15
l-25 -10 23 -9 c31 -12 27 -53 -5 -57 -13 -2 -23 1 -23 6 0 5 8 9 18 8 9 0 17
6 17 14 0 9 -7 14 -17 12 -13 -2 -18 4 -18 23 0 21 5 25 28 24 l27 0 -25 -11z
m75 -33 c0 -34 -4 -40 -22 -43 -20 -3 -22 1 -21 35 1 47 5 55 26 51 13 -2 17
-14 17 -43z m42 31 c-3 -8 1 -17 9 -20 23 -9 14 -51 -11 -51 -24 0 -32 34 -15
64 12 24 25 28 17 7z m80 3 c8 -8 13 -8 17 0 4 6 16 11 27 11 14 0 19 -7 19
-25 0 -14 5 -25 10 -25 6 0 10 4 10 8 0 5 7 17 16 28 12 15 15 15 10 2 -2 -9
2 -19 10 -22 19 -7 18 -45 -2 -53 -9 -3 -25 -1 -35 6 -12 7 -19 7 -19 1 0 -13
-37 -13 -45 0 -5 8 -11 7 -21 -1 -23 -19 -44 -3 -44 34 0 46 21 62 47 36z
m303 -3 c6 -8 10 -25 8 -38 -2 -18 -9 -23 -33 -23 -23 0 -30 4 -30 20 0 27 41
34 48 8 4 -15 5 -15 6 -2 1 22 -25 43 -44 36 -8 -4 -17 -18 -21 -32 -8 -34 12
-58 44 -50 15 4 21 2 17 -5 -8 -14 -48 -13 -63 2 -7 7 -12 26 -12 43 0 17 5
36 12 43 16 16 53 15 68 -2z m32 -38 c2 -21 0 -38 -4 -38 -4 0 -8 21 -7 48 1
52 6 48 11 -10z m105 30 c-3 -8 -6 -5 -6 6 -1 11 2 17 5 13 3 -3 4 -12 1 -19z
m-76 -25 c1 -17 2 -17 6 0 5 19 19 22 29 6 4 -8 9 -7 15 2 7 11 9 10 9 -3 0
-40 -29 -68 -31 -30 -1 16 -2 16 -6 -1 -3 -10 -10 -16 -16 -14 -14 4 -29 57
-16 57 5 0 10 -8 10 -17z m-1178 -107 c3 -8 -3 -26 -14 -40 l-19 -25 22 -4
c17 -3 14 -5 -9 -6 -38 -1 -41 8 -13 34 24 21 27 50 5 41 -8 -3 -15 -1 -15 4
0 16 37 12 43 -4z m-31 -511 c2 -22 0 -34 -6 -32 -14 4 -21 67 -8 67 6 0 12
-16 14 -35z m211 28 c-7 -2 -14 -19 -14 -36 l-2 -32 -4 30 c-3 16 -10 33 -16
37 -7 4 2 7 18 7 17 0 24 -3 18 -6z m97 -28 c0 -28 -4 -35 -20 -35 -15 0 -20
7 -20 25 0 16 6 25 15 25 8 0 15 5 15 10 0 6 2 10 5 10 3 0 5 -16 5 -35z m194
-4 c1 -17 -1 -31 -5 -31 -9 0 -17 42 -11 59 6 19 14 6 16 -28z m124 21 c16
-16 16 -18 0 -34 -9 -9 -30 -16 -46 -16 -25 1 -31 6 -34 30 -3 15 -3 30 -1 32
11 10 67 2 81 -12z m51 -19 c-2 -31 -3 -33 -6 -10 -2 15 -9 27 -14 27 -6 0 -7
5 -4 10 13 22 25 8 24 -27z m56 2 c0 -23 -4 -30 -20 -30 -21 0 -31 25 -21 51
11 28 41 12 41 -21z m85 15 c0 -11 -7 -20 -15 -20 -8 0 -15 -7 -15 -15 0 -8
-4 -15 -10 -15 -5 0 -10 16 -10 35 0 31 3 35 25 35 18 0 25 -5 25 -20z m37 4
c5 -15 7 -15 15 0 15 28 28 18 27 -21 -1 -21 -3 -30 -6 -20 -4 14 -8 15 -18 7
-10 -8 -15 -8 -21 1 -5 9 -10 7 -15 -7 -6 -14 -8 -9 -8 19 -1 38 15 50 26 21z
m-825 -13 c8 12 10 12 15 0 5 -11 7 -11 15 0 6 10 8 7 6 -11 -2 -19 -9 -25
-28 -25 -19 0 -26 6 -27 25 -1 14 0 19 3 11 5 -11 8 -11 16 0z m108 -1 c0 -5
-7 -10 -15 -10 -8 0 -15 5 -15 10 0 6 7 10 15 10 8 0 15 -4 15 -10z m118 -13
c4 -20 -25 -34 -40 -19 -15 15 -1 44 19 40 10 -2 19 -11 21 -21z m122 11 c0
-9 3 -8 10 2 15 24 20 6 8 -28 -7 -18 -19 -32 -28 -32 -13 0 -13 2 -1 9 12 8
12 14 4 33 l-12 23 0 -22 c-1 -16 -7 -23 -21 -23 -25 0 -27 30 -2 31 14 0 14
2 -3 9 -17 7 -15 9 13 9 19 1 32 -4 32 -11z m98 -16 c3 -16 -2 -22 -17 -22
-26 0 -37 18 -16 26 13 6 14 9 3 16 -9 7 -8 8 7 6 12 -2 21 -12 23 -26z"/>
<path d="M800 2610 c0 -11 5 -20 10 -20 6 0 10 9 10 20 0 11 -4 20 -10 20 -5
0 -10 -9 -10 -20z"/>
<path d="M970 2610 c0 -11 5 -20 10 -20 6 0 10 9 10 20 0 11 -4 20 -10 20 -5
0 -10 -9 -10 -20z"/>
<path d="M1390 2640 c0 -11 5 -20 10 -20 6 0 10 9 10 20 0 11 -4 20 -10 20 -5
0 -10 -9 -10 -20z"/>
<path d="M1041 2624 c0 -11 3 -14 6 -6 3 7 2 16 -1 19 -3 4 -6 -2 -5 -13z"/>
<path d="M1105 2631 c-3 -5 -1 -12 5 -16 5 -3 10 1 10 9 0 18 -6 21 -15 7z"/>
<path d="M1165 2630 c-3 -5 1 -10 10 -10 9 0 13 5 10 10 -3 6 -8 10 -10 10 -2
0 -7 -4 -10 -10z"/>
<path d="M1035 2570 c3 -5 10 -10 16 -10 5 0 9 5 9 10 0 6 -7 10 -16 10 -8 0
-12 -4 -9 -10z"/>
<path d="M1100 2570 c0 -5 5 -10 10 -10 6 0 10 5 10 10 0 6 -4 10 -10 10 -5 0
-10 -4 -10 -10z"/>
<path d="M570 2599 c0 -5 5 -7 10 -4 6 3 10 8 10 11 0 2 -4 4 -10 4 -5 0 -10
-5 -10 -11z"/>
<path d="M2180 2630 c0 -5 7 -10 15 -10 8 0 15 5 15 10 0 6 -7 10 -15 10 -8 0
-15 -4 -15 -10z"/>
<path d="M890 2301 c0 -6 5 -13 10 -16 6 -3 10 1 10 9 0 9 -4 16 -10 16 -5 0
-10 -4 -10 -9z"/>
<path d="M1040 2300 c0 -5 5 -10 10 -10 6 0 10 5 10 10 0 6 -4 10 -10 10 -5 0
-10 -4 -10 -10z"/>
<path d="M1490 2302 c0 -14 11 -21 26 -15 21 8 17 23 -6 23 -11 0 -20 -4 -20
-8z"/>
<path d="M4356 2132 c-3 -6 -1 -14 5 -17 15 -10 25 3 12 16 -7 7 -13 7 -17 1z"/>
<path d="M661 2084 c0 -11 3 -14 6 -6 3 7 2 16 -1 19 -3 4 -6 -2 -5 -13z"/>
<path d="M1115 2090 c-7 -12 2 -30 16 -30 5 0 9 9 9 20 0 21 -15 27 -25 10z"/>
<path d="M1450 2080 c0 -13 5 -20 13 -17 6 2 12 10 12 17 0 7 -6 15 -12 18 -8
2 -13 -5 -13 -18z"/>
<path d="M910 2089 c0 -5 5 -7 10 -4 6 3 10 8 10 11 0 2 -4 4 -10 4 -5 0 -10
-5 -10 -11z"/>
<path d="M960 2080 c0 -13 5 -20 13 -17 6 2 12 10 12 17 0 7 -6 15 -12 18 -8
2 -13 -5 -13 -18z"/>
<path d="M1230 2080 c0 -11 5 -20 10 -20 6 0 10 9 10 20 0 11 -4 20 -10 20 -5
0 -10 -9 -10 -20z"/>
<path d="M1288 2043 c7 -3 16 -2 19 1 4 3 -2 6 -13 5 -11 0 -14 -3 -6 -6z"/>
<path d="M1345 2090 c3 -5 8 -10 11 -10 2 0 4 5 4 10 0 6 -5 10 -11 10 -5 0
-7 -4 -4 -10z"/>
<path d="M1348 2043 c7 -3 16 -2 19 1 4 3 -2 6 -13 5 -11 0 -14 -3 -6 -6z"/>
<path d="M650 1875 c0 -8 5 -15 10 -15 6 0 10 7 10 15 0 8 -4 15 -10 15 -5 0
-10 -7 -10 -15z"/>
<path d="M1750 1895 c0 -14 4 -25 9 -25 12 0 19 21 13 38 -8 21 -22 13 -22
-13z"/>
<path d="M2790 1905 c0 -8 5 -15 10 -15 6 0 10 7 10 15 0 8 -4 15 -10 15 -5 0
-10 -7 -10 -15z"/>
<path d="M770 1880 c0 -19 3 -21 12 -12 9 9 9 15 0 24 -9 9 -12 7 -12 -12z"/>
<path d="M1684 1756 c-9 -23 0 -51 17 -54 19 -4 32 23 24 49 -7 22 -33 25 -41
5z"/>
<path d="M1886 1741 c-4 -7 -5 -15 -2 -18 9 -9 19 4 14 18 -4 11 -6 11 -12 0z"/>
<path d="M2020 1735 c0 -25 4 -35 13 -32 6 2 12 16 12 32 0 16 -6 30 -12 33
-9 2 -13 -8 -13 -33z"/>
<path d="M2510 1735 c0 -25 4 -35 13 -32 6 2 12 16 12 32 0 16 -6 30 -12 33
-9 2 -13 -8 -13 -33z"/>
<path d="M2574 1756 c-9 -23 0 -51 17 -54 19 -4 32 23 24 49 -7 22 -33 25 -41
5z"/>
<path d="M1724 1616 c-9 -23 0 -51 17 -54 19 -4 32 23 24 49 -7 22 -33 25 -41
5z"/>
<path d="M1810 1595 c0 -25 4 -35 13 -32 6 2 12 16 12 32 0 16 -6 30 -12 33
-9 2 -13 -8 -13 -33z"/>
<path d="M660 1115 c0 -14 5 -25 10 -25 6 0 10 11 10 25 0 14 -4 25 -10 25 -5
0 -10 -11 -10 -25z"/>
<path d="M2830 1100 c0 -5 5 -10 10 -10 6 0 10 5 10 10 0 6 -4 10 -10 10 -5 0
-10 -4 -10 -10z"/>
<path d="M2890 1100 c0 -5 5 -10 10 -10 6 0 10 5 10 10 0 6 -4 10 -10 10 -5 0
-10 -4 -10 -10z"/>
<path d="M3280 1105 c0 -8 5 -15 10 -15 6 0 10 7 10 15 0 8 -4 15 -10 15 -5 0
-10 -7 -10 -15z"/>
<path d="M3320 1096 c0 -2 7 -7 16 -10 8 -3 12 -2 9 4 -6 10 -25 14 -25 6z"/>
<path d="M620 970 c0 -11 5 -20 10 -20 6 0 10 9 10 20 0 11 -4 20 -10 20 -5 0
-10 -9 -10 -20z"/>
<path d="M675 950 c-7 -12 2 -30 16 -30 12 0 12 27 0 35 -5 3 -12 1 -16 -5z"/>
<path d="M736 981 c-4 -5 -2 -12 3 -15 5 -4 12 -2 15 3 4 5 2 12 -3 15 -5 4
-12 2 -15 -3z"/>
<path d="M796 955 c-3 -8 -1 -15 4 -15 6 0 10 7 10 15 0 8 -2 15 -4 15 -2 0
-6 -7 -10 -15z"/>
<path d="M737 943 c-12 -11 -8 -23 8 -23 8 0 15 7 15 15 0 16 -12 20 -23 8z"/>
<path d="M1124 976 c-8 -21 -1 -49 13 -53 13 -5 21 23 15 50 -5 21 -21 22 -28
3z"/>
<path d="M1196 961 c-4 -7 -5 -15 -2 -18 9 -9 19 4 14 18 -4 11 -6 11 -12 0z"/>
<path d="M1310 981 c0 -6 5 -13 10 -16 6 -3 10 1 10 9 0 9 -4 16 -10 16 -5 0
-10 -4 -10 -9z"/>
<path d="M1310 935 c0 -9 5 -15 11 -13 6 2 11 8 11 13 0 5 -5 11 -11 13 -6 2
-11 -4 -11 -13z"/>
<path d="M1370 940 c0 -13 5 -20 13 -17 6 2 12 10 12 17 0 7 -6 15 -12 18 -8
2 -13 -5 -13 -18z"/>
<path d="M1434 976 c-8 -21 -1 -49 14 -54 8 -2 12 8 12 32 0 36 -16 49 -26 22z"/>
<path d="M1493 983 c-24 -9 -8 -63 19 -63 13 0 9 28 -4 33 -10 4 -10 6 0 6 6
1 12 8 12 16 0 15 -6 17 -27 8z"/>
<path d="M1560 940 c0 -11 5 -20 10 -20 6 0 10 9 10 20 0 11 -4 20 -10 20 -5
0 -10 -9 -10 -20z"/>
<path d="M1725 951 c-3 -5 -1 -12 5 -16 5 -3 10 1 10 9 0 18 -6 21 -15 7z"/>
<path d="M900 325 c0 -8 5 -15 10 -15 6 0 10 7 10 15 0 8 -4 15 -10 15 -5 0
-10 -7 -10 -15z"/>
<path d="M1210 335 c0 -14 5 -25 10 -25 6 0 10 11 10 25 0 14 -4 25 -10 25 -5
0 -10 -11 -10 -25z"/>
<path d="M1330 335 c0 -14 5 -25 10 -25 6 0 10 11 10 25 0 14 -4 25 -10 25 -5
0 -10 -11 -10 -25z"/>
<path d="M1410 350 c0 -5 5 -10 10 -10 6 0 10 5 10 10 0 6 -4 10 -10 10 -5 0
-10 -4 -10 -10z"/>
<path d="M850 324 c0 -8 5 -12 10 -9 6 4 8 11 5 16 -9 14 -15 11 -15 -7z"/>
</g>
</svg>
